<svg width="40" height="40" viewBox="0 0 40 40" fill="none" xmlns="http://www.w3.org/2000/svg">
<path d="M2 19.9833C2 10.0497 10.054 2 20 2C29.946 2 38 10.0497 38 19.9833C38 29.9162 29.9472 37.9654 20.0024 37.9667C10.0517 37.9447 2 29.8907 2 19.9833Z" stroke="white" stroke-width="4"/>
<path d="M28.9978 11.855C27.2962 11.0864 25.5246 10.5274 23.6831 10.2246C23.45 10.6438 23.1936 11.1795 23.0071 11.622C21.0491 11.3193 19.0678 11.3193 17.1097 11.622C16.8999 11.1329 16.6668 10.6671 16.4104 10.2246C14.5689 10.5274 12.774 11.0864 11.0957 11.8782C7.73908 16.8857 6.82999 21.7535 7.27288 26.5746C9.25423 28.0419 11.4454 29.1599 13.7997 29.8586C14.3358 29.1366 14.802 28.3913 15.1983 27.5994C14.4291 27.3199 13.7064 26.9706 13.0071 26.5513C13.1936 26.4116 13.3568 26.2718 13.5433 26.1321C17.6692 28.0885 22.471 28.0885 26.5969 26.1321C26.7834 26.2718 26.9465 26.4116 27.133 26.5513C26.4337 26.9706 25.6878 27.3199 24.9186 27.5994C25.3148 28.3913 25.781 29.1366 26.3172 29.8586C28.6715 29.1366 30.8859 28.0419 32.844 26.5746C33.3568 20.9849 31.9116 16.1404 28.9978 11.855ZM15.7577 23.5934C14.4757 23.5934 13.45 22.4289 13.45 21.0082C13.45 19.5874 14.4757 18.3996 15.7577 18.3996C17.0631 18.3996 18.0887 19.5641 18.0887 21.0082C18.0654 22.4289 17.0631 23.5934 15.7577 23.5934ZM24.3358 23.5934C23.0538 23.5934 22.0281 22.4289 22.0281 21.0082C22.0281 19.5874 23.0538 18.3996 24.3358 18.3996C25.6412 18.3996 26.6668 19.5641 26.6435 21.0082C26.6202 22.4522 25.6179 23.5934 24.3358 23.5934Z" fill="white"/>
</svg>
