<svg width="360" height="362" viewBox="0 0 360 362" fill="none" xmlns="http://www.w3.org/2000/svg">
<g clip-path="url(#clip0_1108_1089)">
<path d="M109.545 168.24C112.197 171.884 117.134 172.671 120.766 170.029C124.398 167.386 125.168 162.446 122.516 158.802C119.865 155.158 114.927 154.371 111.296 157.014C107.664 159.656 106.894 164.596 109.545 168.24ZM112.931 159.806C115.007 158.296 118.148 158.798 119.662 160.879C121.178 162.961 120.948 165.917 118.614 167.615C116.279 169.314 113.396 168.623 111.882 166.542C110.364 164.459 110.856 161.316 112.931 159.806Z" fill="#C4C4C4" fill-opacity="0.1"/>
<path d="M204.9 127.521C201.268 130.163 200.498 135.103 203.15 138.747C205.801 142.391 210.738 143.178 214.37 140.536C218.002 137.893 218.772 132.953 216.121 129.309C213.469 125.665 208.532 124.878 204.9 127.521ZM212.287 137.672C210.211 139.183 207.07 138.68 205.556 136.6C204.04 134.517 204.532 131.374 206.606 129.865C208.681 128.355 211.823 128.857 213.337 130.938C214.854 133.019 214.362 136.162 212.287 137.672Z" fill="#C4C4C4" fill-opacity="0.1"/>
<path d="M158.36 79.3735C154.728 82.0162 153.958 86.956 156.61 90.6001C159.261 94.2442 164.198 95.0311 167.83 92.3885C171.462 89.7458 172.232 84.806 169.581 81.1619C166.67 77.7061 161.733 76.9192 158.36 79.3735ZM165.747 89.5252C163.671 91.0355 160.53 90.5331 159.016 88.4524C157.5 86.3697 157.992 83.2266 160.066 81.7177C162.141 80.2074 165.283 80.7097 166.797 82.7905C168.311 84.8713 167.822 88.0149 165.747 89.5252Z" fill="#C4C4C4" fill-opacity="0.1"/>
<path d="M98.6525 100.922L92.3771 104.294L85.9944 100.977C84.9069 100.574 83.6094 101.518 83.66 102.675L84.8528 109.769L79.7136 114.702C79.1942 115.08 79.3146 115.79 79.2448 116.238C79.3652 116.947 80.0018 117.278 80.4509 117.351L87.4425 118.235L90.5725 124.716C90.9517 125.237 91.3295 125.756 92.0391 125.64C92.7474 125.521 93.265 125.145 93.3366 124.695L96.63 118.317L103.713 117.146C103.971 116.957 104.421 117.027 104.421 117.027C104.68 116.839 104.94 116.649 105.01 116.201C105.34 115.564 104.961 115.043 104.582 114.522L99.8254 109.624L101.136 102.7C101.206 102.252 101.087 101.541 100.448 101.209C99.6207 100.617 99.1698 100.545 98.6523 100.922L98.6525 100.922ZM96.3551 109.761C96.2853 110.209 96.4039 110.92 96.8534 110.99L100.024 114.256L95.3248 114.887C95.066 115.076 94.6165 115.006 94.6165 115.006C94.6165 115.006 94.0972 115.383 94.2861 115.643L92.2395 119.92L90.1073 115.898C89.7281 115.377 89.5392 115.118 89.0915 115.046L84.6019 114.331L87.8546 111.167C88.3739 110.789 88.4438 110.341 88.3234 109.632L87.417 105.115L91.4359 107.367C91.8836 107.438 92.3344 107.51 93.0409 107.393L97.0519 105.272L96.3551 109.761Z" fill="#C4C4C4" fill-opacity="0.1"/>
<path d="M205.507 85.2771C204.988 85.655 205.108 86.3644 205.038 86.8123C205.159 87.5217 205.795 87.8527 206.244 87.9259L213.236 88.8091L216.366 95.2902C216.745 95.8113 217.123 96.3306 217.833 96.2141C218.541 96.0959 219.058 95.7193 219.13 95.2701L222.423 88.8914L229.506 87.7201C229.765 87.5318 230.214 87.6019 230.214 87.6019C230.473 87.4136 230.734 87.224 230.803 86.776C231.134 86.1385 230.755 85.6174 230.376 85.0963L225.172 80.1242L226.482 73.1999C226.552 72.752 226.434 72.0412 225.794 71.7097C225.156 71.3769 224.706 71.3069 224.189 71.6835L217.913 75.0555L211.531 71.7382C210.893 71.4054 210.185 71.5236 209.926 71.7119C209.667 71.9002 209.078 72.7261 209.457 73.2472L210.65 80.3409L205.507 85.2771ZM213.788 80.8458L212.881 76.329L216.9 78.581C217.348 78.6524 217.799 78.7242 218.505 78.6073L222.516 76.4858L221.816 80.9777C221.746 81.4256 221.865 82.1364 222.314 82.2064L225.485 85.4726L220.785 86.104C220.527 86.2922 220.077 86.2222 220.077 86.2222C220.077 86.2222 219.558 86.6001 219.747 86.8598L218.151 91.2058L216.019 87.1838C215.64 86.6627 215.451 86.4031 215.003 86.3317L210.514 85.6161L213.767 82.4524C213.648 81.7417 213.977 81.1054 213.788 80.8458L213.788 80.8458Z" fill="#C4C4C4" fill-opacity="0.1"/>
<path d="M125.763 216.157C125.125 215.824 124.675 215.754 124.158 216.131L117.882 219.503L111.5 216.185C110.412 215.783 109.115 216.727 109.165 217.884L110.358 224.978L105.219 229.911C104.7 230.289 104.82 230.999 104.75 231.447C104.871 232.156 105.507 232.487 105.956 232.56L112.948 233.443L116.078 239.924C116.457 240.446 116.835 240.965 117.544 240.848C118.253 240.73 118.77 240.354 118.842 239.904L122.135 233.526L129.218 232.354C129.477 232.166 129.926 232.236 129.926 232.236C130.185 232.048 130.446 231.858 130.515 231.41C130.846 230.773 130.467 230.252 130.087 229.731L124.884 224.758L126.194 217.834C126.331 216.938 126.212 216.23 125.763 216.157L125.763 216.157ZM121.86 224.97C121.79 225.418 121.909 226.129 122.358 226.199L125.529 229.465L120.83 230.096C120.571 230.285 120.122 230.215 120.122 230.215C120.122 230.215 119.602 230.593 119.791 230.852L117.745 235.129L115.612 231.108C115.233 230.586 115.044 230.327 114.597 230.255L110.107 229.54L113.36 226.376C113.879 225.998 113.949 225.55 113.828 224.841L112.922 220.324L116.941 222.576C117.389 222.647 117.839 222.719 118.546 222.602L122.557 220.481L121.86 224.97Z" fill="#C4C4C4" fill-opacity="0.1"/>
<path d="M151.844 131.49C151.066 132.057 151.114 133.215 151.943 133.806L164.246 146.351C164.625 146.873 165.781 146.826 166.3 146.448L166.559 146.259C167.337 145.693 167.288 144.535 166.46 143.943L154.157 131.399C153.328 130.807 152.622 130.924 151.844 131.49Z" fill="#C4C4C4" fill-opacity="0.1"/>
<path d="M251.002 129.806L246.775 143.628C246.635 144.527 246.944 145.496 247.843 145.64C248.291 145.711 248.742 145.783 249.259 145.406C249.518 145.218 249.778 145.028 249.848 144.58L253.815 130.945C253.955 130.046 253.646 129.076 252.747 128.933C251.92 128.341 251.14 128.908 251.002 129.806L251.002 129.806Z" fill="#C4C4C4" fill-opacity="0.1"/>
<path d="M61.684 197.89C61.5438 198.789 62.3725 199.38 63.2692 199.525L83.5568 200.686C84.0045 200.757 84.2651 200.568 84.5239 200.38C84.7826 200.191 85.1131 199.554 85.1816 199.104C85.3218 198.205 84.4931 197.614 83.5964 197.469L63.3088 196.308C62.4121 196.163 61.8242 196.991 61.684 197.89L61.684 197.89Z" fill="#C4C4C4" fill-opacity="0.1"/>
<path d="M130.851 55.1993C129.952 55.0561 128.985 55.3627 128.845 56.2617L121.164 78.9683C121.024 79.8673 121.333 80.8363 122.231 80.9795C122.679 81.0509 123.389 80.9344 123.647 80.7461C123.906 80.5578 124.167 80.3682 124.237 79.9203L131.918 57.2137C132.057 56.3129 131.488 55.5322 130.851 55.1993L130.851 55.1993Z" fill="#C4C4C4" fill-opacity="0.1"/>
<path d="M197.706 247.413C195.054 243.769 190.117 242.982 186.485 245.625C182.853 248.267 182.083 253.207 184.735 256.851C187.386 260.495 192.323 261.282 195.955 258.64C199.587 255.997 200.167 250.796 197.706 247.413ZM187.588 254.775C186.073 252.692 186.565 249.549 188.638 248.04C190.714 246.53 193.855 247.032 195.369 249.113C196.885 251.196 196.393 254.339 194.319 255.848C191.796 257.287 189.104 256.857 187.588 254.775Z" fill="#C4C4C4" fill-opacity="0.1"/>
<path d="M289.63 228.698C293.261 226.055 294.032 221.115 291.38 217.471C288.728 213.827 283.791 213.04 280.159 215.683C276.528 218.325 275.757 223.265 278.409 226.909C281.06 230.553 285.996 231.342 289.63 228.698ZM282.054 218.287C284.13 216.776 287.271 217.279 288.785 219.359C290.301 221.442 289.809 224.585 287.735 226.094C285.659 227.604 282.518 227.102 281.004 225.021C279.487 222.94 279.979 219.797 282.054 218.287Z" fill="#C4C4C4" fill-opacity="0.1"/>
<path d="M244.581 169.513C241.929 165.868 236.992 165.082 233.36 167.724C229.728 170.367 228.958 175.307 231.61 178.951C234.261 182.595 239.198 183.382 242.83 180.739C246.462 178.096 247.232 173.157 244.581 169.513ZM240.937 178.137C238.861 179.647 235.72 179.145 234.206 177.064C232.69 174.982 233.182 171.839 235.256 170.33C237.332 168.819 240.473 169.322 241.987 171.402C243.501 173.483 243.271 176.439 240.937 178.137Z" fill="#C4C4C4" fill-opacity="0.1"/>
<path d="M170.527 197.519L166.516 199.641L162.497 197.389C161.41 196.986 160.112 197.93 160.163 199.087L161.069 203.604L157.556 206.957C157.037 207.335 157.157 208.045 157.087 208.493C157.208 209.202 157.844 209.533 158.293 209.606L162.783 210.322L164.915 214.344C165.294 214.865 165.672 215.384 166.382 215.268C167.09 215.149 167.607 214.773 167.679 214.324L169.726 210.046L174.425 209.415C174.684 209.227 175.134 209.297 175.134 209.297C175.392 209.108 175.653 208.919 175.723 208.471C176.053 207.833 175.674 207.312 175.295 206.791L172.124 203.525L172.824 199.033C172.894 198.585 172.775 197.874 172.136 197.543C171.753 197.024 171.046 197.141 170.527 197.519L170.527 197.519ZM168.837 203.922C168.767 204.37 168.886 205.081 169.336 205.151L170.921 206.786L168.796 207.137C168.538 207.326 168.088 207.256 168.088 207.256C168.088 207.256 167.569 207.633 167.758 207.893L166.77 209.806L165.702 207.795C165.323 207.274 165.134 207.014 164.686 206.943L161.925 206.963L163.553 205.382C164.072 205.004 164.142 204.556 164.022 203.847L163.664 201.719L165.578 202.714C166.026 202.786 166.477 202.857 167.183 202.74L169.189 201.678L168.837 203.922Z" fill="#C4C4C4" fill-opacity="0.1"/>
<path d="M301.24 160.134C300.602 159.801 300.153 159.731 299.635 160.108L293.36 163.48L286.977 160.162C285.889 159.759 284.592 160.704 284.643 161.861L285.835 168.955L280.698 173.887C280.179 174.265 280.299 174.974 280.229 175.422C280.35 176.131 280.986 176.462 281.435 176.536L288.427 177.419L292.003 183.973C292.382 184.494 292.76 185.013 293.47 184.897C294.178 184.779 294.695 184.402 294.767 183.953L298.06 177.574L305.143 176.403C305.402 176.214 305.851 176.285 305.851 176.285C306.11 176.096 306.371 175.907 306.44 175.459C306.771 174.821 306.392 174.3 306.013 173.779L300.808 168.81L302.119 161.886C301.997 161.174 301.619 160.655 301.24 160.134L301.24 160.134ZM297.526 169.207C297.456 169.655 297.575 170.365 298.025 170.435L301.195 173.702L296.496 174.333C296.237 174.521 295.788 174.451 295.788 174.451C295.788 174.451 295.268 174.829 295.457 175.089L293.411 179.366L291.278 175.344C290.899 174.823 290.71 174.563 290.263 174.492L285.773 173.776L289.026 170.613C289.545 170.235 289.615 169.787 289.495 169.077L288.588 164.561L292.607 166.813C293.055 166.884 293.506 166.956 294.212 166.839L298.223 164.717L297.526 169.207Z" fill="#C4C4C4" fill-opacity="0.1"/>
<path d="M194.548 328.139L197.842 321.761L204.924 320.589C205.183 320.401 205.633 320.471 205.633 320.471C205.891 320.283 206.152 320.093 206.222 319.645C206.552 319.008 206.173 318.487 205.794 317.965L200.59 312.993L201.901 306.069C201.971 305.621 201.852 304.91 201.212 304.579C200.574 304.246 200.125 304.176 199.607 304.553L193.332 307.925L186.949 304.607C186.311 304.275 185.603 304.393 185.344 304.581C185.085 304.769 184.496 305.595 184.875 306.116L186.068 313.21L180.929 318.144C180.41 318.522 180.53 319.231 180.46 319.679C180.58 320.388 181.217 320.719 181.666 320.792L188.658 321.676L191.788 328.157C192.167 328.678 192.545 329.197 193.254 329.081C193.959 328.965 194.477 328.589 194.548 328.139L194.548 328.139ZM185.106 317.89L188.358 314.726C188.878 314.348 188.948 313.9 188.827 313.191L187.921 308.674L191.94 310.926C192.387 310.997 192.838 311.069 193.545 310.952L197.556 308.831L196.855 313.322C196.785 313.77 196.904 314.481 197.354 314.551L200.525 317.817L195.825 318.449C195.566 318.637 195.117 318.567 195.117 318.567C195.117 318.567 194.597 318.945 194.786 319.205L192.74 323.482L190.608 319.46C190.228 318.939 190.039 318.679 189.592 318.608L185.106 317.89Z" fill="#C4C4C4" fill-opacity="0.1"/>
<path d="M240.35 218.773C239.523 218.18 238.556 218.487 238.225 219.124L228.594 233.697C228.005 234.523 228.314 235.492 228.952 235.825C229.59 236.158 230.299 236.039 230.818 235.661L231.337 235.283L240.968 220.711C241.297 220.074 240.989 219.104 240.35 218.773Z" fill="#C4C4C4" fill-opacity="0.1"/>
<path d="M324.708 233.828C324.967 233.64 325.227 233.451 325.297 233.003L329.264 219.367C329.404 218.468 329.094 217.499 328.196 217.355C327.297 217.212 326.33 217.519 326.19 218.418L322.224 232.054C322.083 232.953 322.393 233.922 323.291 234.065C323.741 234.135 324.449 234.017 324.708 233.829L324.708 233.828Z" fill="#C4C4C4" fill-opacity="0.1"/>
<path d="M136.944 286.052C136.804 286.951 137.632 287.542 138.529 287.687L158.817 288.848C159.264 288.919 159.525 288.729 159.784 288.541C160.042 288.353 160.373 287.715 160.441 287.266C160.582 286.367 159.753 285.775 158.856 285.631L138.569 284.47C137.862 284.587 137.084 285.153 136.944 286.052Z" fill="#C4C4C4" fill-opacity="0.1"/>
<path d="M184.619 40.7575C184.878 40.5692 185.397 40.1913 185.467 39.7434L186.237 34.8035C186.377 33.9045 185.809 33.1238 184.911 32.9806C184.012 32.8373 183.234 33.4035 183.094 34.3025L182.324 39.2424C182.184 40.1414 182.752 40.9222 183.65 41.0654C184.102 41.1341 184.36 40.9458 184.619 40.7575Z" fill="#C4C4C4" fill-opacity="0.1"/>
<path d="M181.271 56.3323C181.719 56.4037 181.98 56.2141 182.497 55.8375C183.017 55.4596 183.275 55.2713 183.345 54.8233L184.115 49.8835C184.256 48.9845 183.688 48.2037 182.789 48.0605C181.89 47.9173 181.112 48.4835 180.972 49.3825L180.202 54.3224C179.805 55.4083 180.373 56.1891 181.271 56.3323Z" fill="#C4C4C4" fill-opacity="0.1"/>
<path d="M187.819 46.7908L192.756 47.5777C193.204 47.6491 193.464 47.4595 193.982 47.0829C194.501 46.705 194.76 46.5167 194.83 46.0687C194.97 45.1697 194.402 44.389 193.503 44.2458L188.566 43.4589C187.668 43.3157 186.89 43.8818 186.749 44.7809C186.613 45.6772 186.922 46.6463 187.819 46.7908Z" fill="#C4C4C4" fill-opacity="0.1"/>
<path d="M177.685 45.4057C178.133 45.4771 178.394 45.2875 178.911 44.9109C179.431 44.533 179.689 44.3447 179.759 43.8968C179.899 42.9978 179.331 42.217 178.433 42.0738L173.496 41.2869C172.597 41.1437 171.819 41.7099 171.679 42.6089C171.539 43.5079 172.107 44.2886 173.005 44.4318L177.685 45.4057Z" fill="#C4C4C4" fill-opacity="0.1"/>
<path d="M32.7726 142.888C33.5507 142.322 33.6909 141.423 33.1228 140.642L30.0921 136.477C29.5239 135.696 28.6254 135.553 27.8473 136.119C27.0692 136.685 26.929 137.584 27.4971 138.365L30.5278 142.53C31.096 143.311 32.2533 143.266 32.7726 142.888Z" fill="#C4C4C4" fill-opacity="0.1"/>
<path d="M39.6192 155.024C40.1873 155.805 41.0858 155.948 41.8639 155.382C42.642 154.816 42.7822 153.917 42.2141 153.136L39.1834 148.971C38.6152 148.19 37.7167 148.047 36.9386 148.613C36.1605 149.179 36.0203 150.078 36.5884 150.859L39.6192 155.024Z" fill="#C4C4C4" fill-opacity="0.1"/>
<path d="M42.2099 138.409L38.0587 141.429C37.2806 141.996 37.1404 142.895 37.7085 143.675C38.2766 144.456 39.1752 144.599 39.9533 144.033L44.1044 141.013C44.8826 140.446 45.0227 139.547 44.4546 138.767C43.8847 137.987 42.988 137.843 42.2099 138.409Z" fill="#C4C4C4" fill-opacity="0.1"/>
<path d="M29.7579 147.47L25.6085 150.489C24.8304 151.055 24.6902 151.954 25.2583 152.735C25.8264 153.516 26.725 153.659 27.5031 153.093L31.6543 150.072C32.4324 149.506 32.5726 148.607 32.0044 147.826C31.4345 147.047 30.536 146.903 29.7579 147.47Z" fill="#C4C4C4" fill-opacity="0.1"/>
<path d="M245.622 273.459C244.723 273.316 243.945 273.882 243.805 274.781L243.035 279.721C242.895 280.62 243.463 281.401 244.361 281.544C244.809 281.615 245.069 281.426 245.587 281.049C246.106 280.671 246.365 280.483 246.435 280.035L247.205 275.095C247.088 274.383 246.52 273.602 245.622 273.459Z" fill="#C4C4C4" fill-opacity="0.1"/>
<path d="M244.567 290.549C244.708 289.65 244.139 288.87 243.241 288.726C242.342 288.583 241.564 289.149 241.424 290.048L240.654 294.988C240.514 295.887 241.082 296.668 241.98 296.811C242.428 296.883 242.689 296.693 243.206 296.316C243.725 295.938 243.984 295.75 244.054 295.302L244.567 290.549Z" fill="#C4C4C4" fill-opacity="0.1"/>
<path d="M254.145 285.173L249.208 284.386C248.309 284.242 247.531 284.809 247.391 285.708C247.251 286.607 247.819 287.387 248.718 287.531L253.655 288.318C254.103 288.389 254.363 288.199 254.881 287.823C255.4 287.445 255.659 287.256 255.729 286.809C255.612 286.097 255.044 285.316 254.145 285.173Z" fill="#C4C4C4" fill-opacity="0.1"/>
<path d="M238.885 282.74L233.948 281.953C233.049 281.81 232.271 282.376 232.131 283.275C231.991 284.174 232.559 284.955 233.457 285.098L238.395 285.885C238.842 285.957 239.103 285.767 239.62 285.39C240.14 285.013 240.399 284.824 240.468 284.376C240.352 283.664 239.784 282.884 238.885 282.74L238.885 282.74Z" fill="#C4C4C4" fill-opacity="0.1"/>
<path d="M95.8992 260.181C96.6773 259.615 96.8175 258.716 96.2494 257.935L93.22 253.772C92.6519 252.991 91.7533 252.848 90.9752 253.414C90.1971 253.98 90.0569 254.879 90.625 255.66L93.6558 259.825C94.2239 260.606 95.1211 260.747 95.8992 260.181Z" fill="#C4C4C4" fill-opacity="0.1"/>
<path d="M104.991 272.675C105.769 272.109 105.909 271.21 105.341 270.429L102.31 266.264C101.742 265.483 100.844 265.34 100.066 265.906C99.2874 266.473 99.1472 267.372 99.7154 268.152L102.746 272.318C103.314 273.098 104.213 273.241 104.991 272.675Z" fill="#C4C4C4" fill-opacity="0.1"/>
<path d="M100.837 260.968C101.405 261.749 102.304 261.892 103.082 261.326L107.233 258.305C108.011 257.739 108.151 256.84 107.583 256.059C107.015 255.279 106.116 255.135 105.338 255.702L101.187 258.722C100.41 259.29 100.269 260.187 100.837 260.968Z" fill="#C4C4C4" fill-opacity="0.1"/>
<path d="M90.6285 270.386L94.7797 267.366C95.5578 266.8 95.698 265.901 95.1299 265.12C94.5618 264.339 93.6633 264.196 92.8852 264.762L88.734 267.783C87.9559 268.349 87.8157 269.248 88.3838 270.029C88.9537 270.808 89.8504 270.952 90.6285 270.386Z" fill="#C4C4C4" fill-opacity="0.1"/>
<path d="M198.964 174.438C199.223 174.25 199.743 173.872 199.812 173.424L200.583 168.484C200.723 167.585 200.155 166.804 199.256 166.661C198.358 166.518 197.58 167.084 197.439 167.983L196.481 172.66C196.341 173.559 196.909 174.34 197.807 174.483C198.255 174.555 198.706 174.626 198.965 174.438L198.964 174.438Z" fill="#C4C4C4" fill-opacity="0.1"/>
<path d="M194.871 182.99L194.101 187.93C193.961 188.829 194.529 189.61 195.428 189.753C195.875 189.825 196.136 189.635 196.653 189.258C197.173 188.88 197.432 188.692 197.501 188.244L198.272 183.304C198.412 182.405 197.844 181.625 196.945 181.481C196.048 181.337 195.01 182.093 194.871 182.99Z" fill="#C4C4C4" fill-opacity="0.1"/>
<path d="M202.164 180.471L207.101 181.257C207.549 181.329 207.809 181.139 208.327 180.763C208.846 180.385 209.105 180.196 209.175 179.748C209.315 178.849 208.747 178.069 207.848 177.925L202.911 177.139C202.013 176.995 201.235 177.562 201.094 178.461C200.958 179.357 201.265 180.327 202.164 180.471Z" fill="#C4C4C4" fill-opacity="0.1"/>
<path d="M192.331 175.682L187.394 174.895C186.495 174.752 185.717 175.318 185.577 176.217C185.437 177.116 186.005 177.897 186.903 178.04L191.84 178.827C192.288 178.898 192.549 178.709 193.066 178.332C193.586 177.954 193.844 177.766 193.914 177.318C193.797 176.606 193.229 175.825 192.331 175.682Z" fill="#C4C4C4" fill-opacity="0.1"/>
<path d="M275.156 115.017C274.588 114.236 273.69 114.093 272.912 114.659C272.134 115.225 271.993 116.124 272.562 116.905L275.594 121.069C276.162 121.85 277.061 121.993 277.839 121.427C278.617 120.861 278.757 119.962 278.189 119.181L275.156 115.017Z" fill="#C4C4C4" fill-opacity="0.1"/>
<path d="M282.004 127.154C281.225 127.72 281.085 128.619 281.653 129.4L284.684 133.565C285.252 134.346 286.151 134.489 286.929 133.923C287.707 133.356 287.847 132.457 287.279 131.677L284.248 127.511C283.677 126.73 282.782 126.588 282.004 127.154Z" fill="#C4C4C4" fill-opacity="0.1"/>
<path d="M282.774 122.214C283.342 122.995 284.241 123.138 285.019 122.572L289.17 119.551C289.948 118.985 290.088 118.086 289.52 117.305C288.952 116.524 288.053 116.381 287.275 116.947L283.124 119.968C282.344 120.535 282.205 121.431 282.774 122.214Z" fill="#C4C4C4" fill-opacity="0.1"/>
<path d="M274.823 126.009L270.671 129.03C269.893 129.596 269.753 130.495 270.321 131.276C270.889 132.056 271.788 132.2 272.566 131.633L276.717 128.613C277.495 128.047 277.636 127.148 277.067 126.367C276.498 125.584 275.601 125.443 274.823 126.009Z" fill="#C4C4C4" fill-opacity="0.1"/>
</g>
<defs>
<clipPath id="clip0_1108_1089">
<rect width="253.226" height="262.705" fill="white" transform="translate(0 148.989) rotate(-36.041)"/>
</clipPath>
</defs>
</svg>
