<svg width="318" height="318" viewBox="0 0 318 318" fill="none" xmlns="http://www.w3.org/2000/svg">
<g clip-path="url(#clip0_1108_846)">
<path d="M195.121 117.435C188.464 133.735 186.734 133.881 176.166 119.922C186.933 133.815 186.347 135.35 168.856 137.559C186.347 135.351 187.223 136.609 180.499 152.709C187.155 136.409 188.685 136.331 199.453 150.222C188.686 136.329 189.272 134.794 206.763 132.585C189.341 134.991 188.266 133.802 195.121 117.435Z" fill="black" fill-opacity="0.3"/>
<path d="M157.728 88.1843C144.307 99.6795 142.772 99.0937 139.698 81.6747C142.97 99.0241 141.713 99.8998 125.02 94.046C141.514 99.9681 141.792 101.43 128.571 112.857C141.991 101.362 143.527 101.948 146.6 119.367C143.328 102.018 144.585 101.142 161.278 106.996C144.786 101.073 144.506 99.6117 157.728 88.1843Z" fill="black" fill-opacity="0.3"/>
<path d="M133.091 55.2303C127.075 60.4069 126.541 60.1445 125.012 52.4338C126.342 60.2116 125.812 60.6154 118.468 58.014C125.813 60.6169 126.085 61.4126 120.002 66.3895C126.018 61.2128 126.552 61.4753 128.081 69.186C126.752 61.4082 127.281 61.0044 134.625 63.6058C127.08 61.0716 127.074 60.4057 133.091 55.2303Z" fill="black" fill-opacity="0.3"/>
<path d="M211.146 58.9804C205.329 64.0874 204.596 63.8932 203.199 55.9162C204.528 63.694 203.998 64.0978 196.654 61.4964C203.999 64.0993 204.272 64.895 198.189 69.8719C204.205 64.6953 204.739 64.9577 206.268 72.6684C204.938 64.8906 205.468 64.4868 212.812 67.0882C205.335 64.7534 205.329 64.0874 211.147 58.9803L211.146 58.9804Z" fill="black" fill-opacity="0.3"/>
<path d="M98.2731 192.666C92.2571 197.843 91.7232 197.581 90.1942 189.87C91.5238 197.648 90.9941 198.051 83.6501 195.45C90.9949 198.053 91.2674 198.849 85.1843 203.826C91.2004 198.649 91.7343 198.911 93.2633 206.622C91.9337 198.844 92.4634 198.44 99.8074 201.042C92.4617 198.441 92.257 197.843 98.2731 192.666Z" fill="black" fill-opacity="0.3"/>
<path d="M136.091 225.109C130.075 230.285 129.541 230.023 128.012 222.312C129.342 230.09 128.812 230.494 121.468 227.892C128.813 230.495 129.085 231.291 123.002 236.268C129.018 231.091 129.552 231.354 131.081 239.064C129.752 231.287 130.281 230.883 137.625 233.484C130.281 230.881 130.076 230.284 136.091 225.109Z" fill="black" fill-opacity="0.3"/>
<path d="M246.925 126.392C240.909 131.569 240.376 131.306 238.847 123.595C240.176 131.373 239.646 131.777 232.302 129.176C239.647 131.779 239.92 132.574 233.837 137.551C239.853 132.374 240.387 132.637 241.916 140.348C240.586 132.57 241.116 132.166 248.46 134.767C241.114 132.165 240.909 131.567 246.925 126.392Z" fill="black" fill-opacity="0.3"/>
<path d="M105.959 139.741C89.3684 154.325 87.5656 153.608 83.2595 131.94C87.5657 153.608 85.9779 154.82 65.2805 147.667C86.1774 154.752 86.3925 156.681 70.0011 171.196C86.592 156.612 88.3948 157.329 92.7009 178.998C88.463 157.529 89.7831 156.186 110.68 163.27C89.783 156.186 89.3685 154.325 105.959 139.741Z" fill="black" fill-opacity="0.3"/>
<path d="M236.406 158.701C223.149 173.923 218.427 174.429 203.204 161.173C218.426 174.429 218.932 179.152 205.676 194.374C218.932 179.153 223.655 178.647 238.877 191.903C223.654 178.647 223.15 173.924 236.406 158.701Z" fill="black" fill-opacity="0.3"/>
<path d="M167.25 39.9689C163.633 53.4473 160.782 54.8694 147.162 50.1883C160.782 54.8694 162.472 57.8517 158.854 71.3292C162.47 57.8508 165.321 56.4287 178.942 61.1098C165.321 56.4287 163.633 53.447 167.25 39.9689Z" fill="black" fill-opacity="0.3"/>
<path d="M116.895 174.268C128.543 190.085 127.847 194.551 112.032 206.198C127.848 194.55 132.314 195.246 143.962 211.061C132.383 195.445 133.01 190.78 148.893 179.33C133.01 190.78 128.543 190.085 116.895 174.269L116.895 174.268Z" fill="black" fill-opacity="0.3"/>
<path d="M87.067 68.9909C91.8183 88.0587 89.387 92.0075 70.3189 96.7589C89.3867 92.0075 93.3354 94.4388 98.0869 113.507C93.3355 94.4392 95.7668 90.4904 114.835 85.739C95.6989 90.291 91.7506 87.8611 87.067 68.9909Z" fill="black" fill-opacity="0.3"/>
<path d="M180.82 167.284C175.265 171.857 173.667 171.737 169.093 166.182C173.667 171.736 173.546 173.335 167.991 177.908C173.546 173.335 175.144 173.455 179.718 179.01C175.213 173.655 175.265 171.857 180.82 167.284Z" fill="black" fill-opacity="0.3"/>
<path d="M136.017 135.898C130.463 140.471 128.864 140.35 124.291 134.796C128.864 140.35 128.744 141.949 123.189 146.522C128.744 141.949 130.342 142.069 134.915 147.624C130.543 142.001 130.662 140.403 136.017 135.898Z" fill="black" fill-opacity="0.3"/>
<path d="M185.58 90.883C180.025 95.4562 178.427 95.3357 173.854 89.7809C178.427 95.3355 178.306 96.934 172.752 101.507C178.306 96.934 179.905 97.0545 184.478 102.609C179.973 97.2541 180.025 95.4562 185.58 90.883Z" fill="black" fill-opacity="0.3"/>
<path d="M215.452 96.2272C220.025 101.782 219.905 103.38 214.35 107.953C219.905 103.38 221.503 103.501 226.076 109.056C221.503 103.501 221.624 101.903 227.179 97.3293C221.624 101.903 220.025 101.782 215.452 96.2272Z" fill="black" fill-opacity="0.3"/>
<path d="M168.359 206.268C172.932 211.823 172.811 213.421 167.256 217.995C172.811 213.421 174.41 213.542 178.983 219.097C174.41 213.542 174.53 211.944 180.085 207.37C174.73 211.875 173.131 211.755 168.359 206.268Z" fill="black" fill-opacity="0.3"/>
</g>
<defs>
<clipPath id="clip0_1108_846">
<rect width="250" height="250" fill="white" transform="translate(0 81.0117) rotate(-18.9078)"/>
</clipPath>
</defs>
</svg>
