<svg width="69" height="53" viewBox="0 0 69 53" fill="none" xmlns="http://www.w3.org/2000/svg">
<path d="M55.3516 24.5392C55.3498 24.538 55.3486 24.5356 55.3474 24.5343L44.6381 15.039C44.4741 14.8938 44.2692 14.8214 44.0648 14.8214H22.5992C22.3804 14.8214 22.1815 14.9034 22.029 15.0372C22.0278 15.0378 22.0266 15.0378 22.026 15.039L11.293 24.5549C11.2918 24.5555 11.2912 24.5567 11.2906 24.5579C11.2038 24.6356 11.1321 24.7309 11.0814 24.8406C10.9404 25.1474 10.991 25.5079 11.211 25.7641L32.672 50.7774C32.6732 50.7786 32.6744 50.7798 32.675 50.781L32.6768 50.7828L32.6774 50.7835C32.8402 50.9733 33.0795 51.0842 33.3321 51.0842C33.3899 51.0842 33.4478 51.0782 33.5063 51.0668C33.6986 51.0276 33.8637 50.9257 33.9849 50.7853C33.9861 50.7841 33.9873 50.7835 33.9879 50.7828L55.4535 25.7649C55.6735 25.5087 55.7235 25.1482 55.5831 24.8414C55.5282 24.7232 55.4481 24.6214 55.3516 24.5406L55.3516 24.5392ZM44.9292 17.6069L52.5208 24.3378H44.9292V17.6069ZM23.4636 17.6069L31.0552 24.3378L23.4636 24.3372V17.6069ZM21.7348 17.6069V24.3378H14.1437L21.7348 17.6069ZM13.7464 26.066H22.0295L25.5693 34.3166L30.3127 45.3744L13.7464 26.066ZM32.4682 46.0146L27.7826 35.0931L23.9102 26.0668H32.4682V46.0146ZM33.3199 24.0583C31.7092 22.6972 27.0147 18.7464 24.2086 16.5498H41.7884L33.3199 24.0583ZM43.201 17.6071V24.3379H35.61L43.201 17.6071ZM34.1969 26.0661H42.7543L38.9072 35.034L34.1969 46.014V26.0661ZM36.352 45.3744L42.1358 31.8915L44.635 26.066H52.9181L36.352 45.3744Z" fill="#898989"/>
<path d="M33.3322 9.6957C33.8096 9.6957 34.1966 9.3087 34.1966 8.83127V1.01292C34.1966 0.535496 33.8096 0.148499 33.3322 0.148499C32.8548 0.148499 32.4678 0.535496 32.4678 1.01292V8.83127C32.4678 9.3087 32.8548 9.6957 33.3322 9.6957Z" fill="#898989"/>
<path d="M17.9536 13.0986C18.1151 13.3711 18.4027 13.523 18.698 13.523C18.8475 13.523 18.9994 13.4844 19.1375 13.4024C19.548 13.1595 19.6842 12.6297 19.4413 12.2185L16.7366 7.64688C16.4937 7.23636 15.9638 7.10013 15.5527 7.34306C15.1422 7.58598 15.0059 8.11585 15.2489 8.52697L17.9536 13.0986Z" fill="#898989"/>
<path d="M8.40725 22.3621L1.42314 18.4271C1.00721 18.1926 0.480353 18.3396 0.245867 18.7556C0.0113817 19.1715 0.158461 19.6984 0.574395 19.9329L7.55788 23.8679C7.6917 23.9433 7.83758 23.9795 7.98105 23.9795C8.28305 23.9795 8.57602 23.8209 8.73455 23.5394C8.97024 23.1235 8.82317 22.5966 8.40723 22.3621L8.40725 22.3621Z" fill="#898989"/>
<path d="M47.5278 13.4026C47.6658 13.4846 47.8171 13.5231 47.9672 13.5231C48.2626 13.5231 48.5507 13.3718 48.7117 13.0988L51.4164 8.5271C51.6593 8.11659 51.5237 7.58612 51.1126 7.34319C50.7021 7.10027 50.1716 7.23589 49.9287 7.64701L47.2239 12.2187C46.981 12.6298 47.1172 13.1597 47.5278 13.4026V13.4026Z" fill="#898989"/>
<path d="M66.4178 18.7556C66.1833 18.3396 65.6564 18.1926 65.2405 18.4271L58.257 22.3621C57.8411 22.5966 57.694 23.1235 57.9285 23.5394C58.087 23.8209 58.3806 23.9795 58.682 23.9795C58.8255 23.9795 58.9713 23.9433 59.1052 23.868L66.0886 19.9329C66.5052 19.6984 66.6523 19.1709 66.4178 18.7556V18.7556Z" fill="#898989"/>
</svg>
