<svg width="40" height="38" viewBox="0 0 40 38" fill="none" xmlns="http://www.w3.org/2000/svg">
<path d="M20 3.39191C25.3402 3.39191 25.9727 3.41104 28.0816 3.50161C30.0316 3.58537 31.0906 3.89205 31.7954 4.14977C32.7289 4.49126 33.3952 4.89926 34.095 5.55796C34.7949 6.21666 35.2283 6.84383 35.5911 7.72244C35.865 8.38585 36.1908 9.38261 36.2798 11.2179C36.376 13.203 36.3963 13.7983 36.3963 18.8248C36.3963 23.8512 36.376 24.4465 36.2798 26.4315C36.1908 28.2669 35.865 29.2637 35.5911 29.9271C35.2283 30.8057 34.7949 31.4329 34.095 32.0916C33.3952 32.7503 32.7289 33.1583 31.7954 33.4997C31.0906 33.7575 30.0316 34.0642 28.0816 34.1479C25.973 34.2385 25.3405 34.2576 20 34.2576C14.6594 34.2576 14.0269 34.2385 11.9183 34.1479C9.9683 34.0642 8.90932 33.7575 8.20457 33.4997C7.27102 33.1583 6.6047 32.7503 5.90488 32.0916C5.20506 31.4329 4.77158 30.8057 4.40885 29.9271C4.13496 29.2637 3.80914 28.2669 3.72014 26.4316C3.62392 24.4465 3.6036 23.8512 3.6036 18.8248C3.6036 13.7983 3.62392 13.203 3.72014 11.218C3.80914 9.3826 4.13496 8.38585 4.40885 7.72244C4.77158 6.84383 5.20506 6.21666 5.90488 5.55796C6.6047 4.89926 7.27102 4.49126 8.20457 4.14977C8.90932 3.89205 9.9683 3.58537 11.9182 3.50161C14.0272 3.41104 14.6597 3.39191 20 3.39191ZM20 0C14.5682 0 13.8872 0.0216702 11.754 0.113283C9.62518 0.204746 8.17139 0.522925 6.89916 0.988311C5.58398 1.46939 4.46863 2.11307 3.35677 3.15959C2.24491 4.20611 1.56105 5.25592 1.04993 6.49382C0.555493 7.69128 0.21745 9.05964 0.120276 11.0634C0.0229437 13.0712 0 13.7122 0 18.8248C0 23.9373 0.0229437 24.5784 0.120276 26.5861C0.21745 28.5899 0.555493 29.9582 1.04993 31.1557C1.56105 32.3935 2.24491 33.4434 3.35677 34.4899C4.46863 35.5365 5.58398 36.1801 6.89916 36.6612C8.17139 37.1266 9.62518 37.4448 11.754 37.5362C13.8872 37.6279 14.5682 37.6495 20 37.6495C25.4317 37.6495 26.1128 37.6279 28.2459 37.5362C30.3747 37.4448 31.8285 37.1266 33.1008 36.6612C34.4159 36.1801 35.5313 35.5365 36.6431 34.4899C37.755 33.4434 38.4389 32.3936 38.95 31.1557C39.4444 29.9582 39.7825 28.5899 39.8796 26.5861C39.977 24.5784 40 23.9373 40 18.8248C40 13.7122 39.977 13.0712 39.8796 11.0634C39.7825 9.05964 39.4444 7.69128 38.95 6.49382C38.4389 5.25592 37.755 4.20611 36.6431 3.15959C35.5313 2.11307 34.4159 1.46939 33.1008 0.988311C31.8285 0.522925 30.3747 0.204746 28.2459 0.113283C26.1128 0.0216702 25.4317 0 20 0ZM20 9.15798C14.3279 9.15798 9.72966 13.486 9.72966 18.8248C9.72966 24.1636 14.3279 28.4915 20 28.4915C25.6721 28.4915 30.2703 24.1636 30.2703 18.8248C30.2703 13.486 25.6721 9.15798 20 9.15798ZM20 25.0997C16.3181 25.0997 13.3333 22.2903 13.3333 18.8248C13.3333 15.3593 16.3181 12.5498 20 12.5498C23.6818 12.5498 26.6667 15.3593 26.6667 18.8248C26.6667 22.2903 23.6818 25.0997 20 25.0997ZM33.076 8.77606C33.076 10.0237 32.0015 11.0351 30.676 11.0351C29.3505 11.0351 28.276 10.0237 28.276 8.77606C28.276 7.52846 29.3505 6.51713 30.676 6.51713C32.0015 6.51713 33.076 7.52846 33.076 8.77606Z" fill="#F9F9F9"/>
</svg>
