<svg width="40" height="40" viewBox="0 0 40 40" fill="none" xmlns="http://www.w3.org/2000/svg">
<path d="M40 20C40 31.0451 31.0451 40 20 40C8.95493 40 0 31.0451 0 20C0 8.95493 8.95493 0 20 0C31.0474 0 40 8.95493 40 20Z" fill="#2081E2"/>
<path d="M9.86694 20.6716L9.95325 20.536L15.156 12.3969C15.232 12.2777 15.4108 12.29 15.4684 12.4194C16.3376 14.3674 17.0876 16.7901 16.7362 18.2983C16.5862 18.9188 16.1752 19.7593 15.7129 20.536C15.6533 20.649 15.5876 20.76 15.5177 20.8668C15.4848 20.9161 15.4293 20.9449 15.3697 20.9449H10.019C9.87516 20.9449 9.79094 20.7887 9.86694 20.6716Z" fill="white"/>
<path d="M33.0577 22.1844V23.4728C33.0577 23.5467 33.0125 23.6125 32.9467 23.6412C32.544 23.8139 31.1652 24.4468 30.5919 25.244C29.1289 27.2803 28.0111 30.192 25.5124 30.192H15.0883C11.3938 30.192 8.3999 27.1879 8.3999 23.481V23.3618C8.3999 23.2632 8.48004 23.183 8.5787 23.183H14.3897C14.5047 23.183 14.589 23.2899 14.5787 23.4029C14.5376 23.781 14.6075 24.1673 14.7863 24.5187C15.1315 25.2193 15.8466 25.657 16.6192 25.657H19.4959V23.4111H16.652C16.5062 23.4111 16.4199 23.2426 16.5041 23.1234C16.5349 23.0762 16.5699 23.0268 16.6068 22.9714C16.876 22.5892 17.2603 21.9953 17.6425 21.3193C17.9034 20.8632 18.1562 20.3761 18.3596 19.8871C18.4007 19.7988 18.4336 19.7084 18.4664 19.62C18.5219 19.4638 18.5795 19.3179 18.6206 19.172C18.6616 19.0488 18.6945 18.9193 18.7274 18.798C18.824 18.383 18.8651 17.9432 18.8651 17.4871C18.8651 17.3083 18.8569 17.1213 18.8404 16.9425C18.8322 16.7473 18.8075 16.5521 18.7829 16.3569C18.7664 16.1843 18.7356 16.0138 18.7027 15.835C18.6616 15.574 18.6041 15.3152 18.5383 15.0542L18.5158 14.9556C18.4664 14.7768 18.4254 14.6062 18.3678 14.4275C18.2055 13.8665 18.0185 13.3199 17.8212 12.8083C17.7493 12.6048 17.6671 12.4096 17.5849 12.2144C17.4637 11.9206 17.3404 11.6535 17.2274 11.4007C17.1699 11.2856 17.1205 11.1808 17.0712 11.074C17.0158 10.9528 16.9582 10.8316 16.9007 10.7164C16.8596 10.6281 16.8123 10.5459 16.7795 10.4637L16.4281 9.8144C16.3787 9.72604 16.461 9.62124 16.5575 9.64795L18.7562 10.2439H18.7623C18.7664 10.2439 18.7685 10.2459 18.7706 10.2459L19.0603 10.326L19.3788 10.4164L19.4959 10.4493V9.14249C19.4959 8.51164 20.0014 8 20.6261 8C20.9384 8 21.2219 8.12738 21.4254 8.33493C21.6288 8.54249 21.7562 8.82604 21.7562 9.14249V11.0822L21.9904 11.148C22.009 11.1541 22.0275 11.1624 22.0439 11.1747C22.1014 11.2178 22.1836 11.2816 22.2884 11.3596C22.3706 11.4254 22.459 11.5055 22.5658 11.5877C22.7775 11.7583 23.0302 11.9781 23.3076 12.2308C23.3815 12.2946 23.4535 12.3603 23.5192 12.4261C23.8768 12.7589 24.2775 13.1494 24.6597 13.5809C24.7665 13.7021 24.8713 13.8254 24.9782 13.9548C25.085 14.0864 25.198 14.2158 25.2967 14.3453C25.4261 14.5179 25.5658 14.6966 25.6871 14.8836C25.7446 14.972 25.8103 15.0624 25.8659 15.1508C26.022 15.3871 26.1597 15.6316 26.2912 15.8761C26.3467 15.9891 26.4042 16.1124 26.4535 16.2336C26.5994 16.5604 26.7145 16.8932 26.7884 17.2261C26.8111 17.298 26.8275 17.3761 26.8357 17.446V17.4624C26.8603 17.5611 26.8686 17.6659 26.8768 17.7727C26.9097 18.1138 26.8932 18.4549 26.8193 18.798C26.7884 18.944 26.7474 19.0816 26.698 19.2275C26.6487 19.3672 26.5994 19.5131 26.5357 19.6508C26.4124 19.9364 26.2665 20.222 26.0939 20.4892C26.0384 20.5878 25.9727 20.6926 25.9069 20.7912C25.835 20.896 25.7611 20.9947 25.6953 21.0912C25.6049 21.2145 25.5083 21.344 25.4097 21.459C25.3213 21.5803 25.2309 21.7015 25.1323 21.8084C24.9946 21.9707 24.8631 22.1248 24.7254 22.2728C24.6432 22.3693 24.5549 22.468 24.4644 22.5563C24.3761 22.6549 24.2857 22.7433 24.2035 22.8255C24.0658 22.9632 23.9507 23.07 23.8542 23.1584L23.6281 23.3659C23.5953 23.3947 23.5521 23.4111 23.5069 23.4111H21.7562V25.657H23.959C24.4521 25.657 24.9206 25.4824 25.2987 25.1618C25.4282 25.0488 25.9932 24.5597 26.6611 23.8221C26.6836 23.7974 26.7124 23.7789 26.7453 23.7707L32.8296 22.0118C32.9426 21.9789 33.0577 22.0652 33.0577 22.1844Z" fill="white"/>
</svg>
