<svg width="40" height="38" viewBox="0 0 40 38" fill="none" xmlns="http://www.w3.org/2000/svg">
<path d="M38 18.8247C38 28.0044 30.057 35.6495 20 35.6495C9.94304 35.6495 2 28.0044 2 18.8247C2 9.64507 9.94304 2 20 2C30.057 2 38 9.64507 38 18.8247Z" stroke="#F9F9F9" stroke-width="4"/>
<path d="M32.8236 11.3367C31.8803 11.7307 30.867 11.997 29.8017 12.1167C30.889 11.5039 31.7219 10.5329 32.1152 9.3771C31.0824 9.95448 29.952 10.361 28.7733 10.5789C27.8141 9.61648 26.4462 9.01562 24.9328 9.01562C22.0281 9.01562 19.6723 11.2321 19.6723 13.9678C19.6723 14.3554 19.7187 14.7335 19.8078 15.0966C15.4351 14.8898 11.5583 12.9183 8.96343 9.92253C8.51032 10.6542 8.25097 11.5048 8.25097 12.4124C8.25097 14.1303 9.17993 15.646 10.5915 16.5339C9.75587 16.5095 8.9386 16.2972 8.20798 15.9147V15.9773C8.20798 18.3769 10.0213 20.3778 12.4283 20.8328C11.9862 20.9468 11.5221 21.0064 11.0421 21.0064C10.7026 21.0064 10.3733 20.9762 10.0516 20.9192C10.7212 22.886 12.6643 24.3176 14.9659 24.3581C13.1653 25.6867 10.8963 26.4787 8.43202 26.4787C8.00758 26.4787 7.58809 26.4548 7.17627 26.4081C9.50503 27.8136 12.27 28.6341 15.2414 28.6341C24.9185 28.6341 30.211 21.0881 30.211 14.5441C30.211 14.3293 30.206 14.1161 30.195 13.9036C31.2261 13.2016 32.1162 12.3324 32.8236 11.3367V11.3367Z" fill="white"/>
</svg>
